<svg width="200" height="200" viewBox="0 0 200 200" fill="none" xmlns="http://www.w3.org/2000/svg">
<path fill-rule="evenodd" clip-rule="evenodd" d="M100 200C44.7715 200 0 155.228 0 100C0 44.7715 44.7715 0 100 0C155.228 0 200 44.7715 200 100C200 155.228 155.228 200 100 200Z" fill="url(#paint0_linear)"/>
<mask id="mask0" mask-type="alpha" maskUnits="userSpaceOnUse" x="0" y="0" width="200" height="200">
<path fill-rule="evenodd" clip-rule="evenodd" d="M100 200C44.7715 200 0 155.228 0 100C0 44.7715 44.7715 0 100 0C155.228 0 200 44.7715 200 100C200 155.228 155.228 200 100 200Z" fill="white"/>
</mask>
<g mask="url(#mask0)">
<path fill-rule="evenodd" clip-rule="evenodd" d="M120.666 116C120.666 116 120.666 116 120.666 124C120.666 134.667 136 139.333 136 139.333C136 139.333 118.333 152.667 99.9998 152.667C81.6664 152.667 63.9998 139.333 63.9998 139.333C63.9998 139.333 79.4535 134.667 79.3331 124C79.2127 113.333 79.293 107.068 79.2127 88.7919C69.658 76.4075 70.2709 68.0953 75.4956 62.2501C92.9998 42.6667 140.666 49.3333 140.666 49.3333C140.666 49.3333 145.114 97.3285 135 111.333C130.666 117.333 120.666 116 120.666 116Z" fill="url(#paint1_linear)"/>
<g style="mix-blend-mode:multiply" opacity="0.6">
<path fill-rule="evenodd" clip-rule="evenodd" d="M120.667 116C106 114.333 97.3333 108 97.3333 108C97.3333 108 104.667 120.333 120.667 124V116Z" fill="url(#paint2_linear)"/>
</g>
<path d="M170 159.539C176.347 172.443 180 202.205 180 202.205H20C20 202.205 23.6549 172.44 30 159.539C36.3451 146.637 73.3995 134.671 73.3995 134.671C80.5418 149.337 119.739 149.335 126.581 134.667C126.581 134.667 163.653 146.634 170 159.539Z" fill="url(#paint3_linear)"/>
<path fill-rule="evenodd" clip-rule="evenodd" d="M100 161.333C101.473 161.333 102.667 160.139 102.667 158.667C102.667 157.194 101.473 156 100 156C98.5273 156 97.3334 157.194 97.3334 158.667C97.3334 160.139 98.5273 161.333 100 161.333ZM99.9999 174.667C101.473 174.667 102.667 173.473 102.667 172C102.667 170.527 101.473 169.333 99.9999 169.333C98.5272 169.333 97.3333 170.527 97.3333 172C97.3333 173.473 98.5272 174.667 99.9999 174.667ZM102.667 185.333C102.667 186.806 101.473 188 99.9999 188C98.5272 188 97.3333 186.806 97.3333 185.333C97.3333 183.861 98.5272 182.667 99.9999 182.667C101.473 182.667 102.667 183.861 102.667 185.333Z" fill="white"/>
<path d="M87.4366 68.8059C85.3164 66.985 82.7405 65.7593 79.0993 67.6512C70.4664 72.1366 77 89.3333 84.6667 89.3333C86.6672 89.3333 87.6616 95.615 78.7564 100.002C78.7564 93.0023 68.0897 75.6689 67.1594 59.8873C56.423 55.8908 59.0897 39.8995 66.4615 39.8995C65.2824 25.2385 88.7564 17.6689 97.8457 26.0796C107.09 15.0023 130.423 20.6689 131.832 30.2789C147.876 21.7137 158.423 46.3356 143.4 55.8908C137.218 59.8225 122.756 61.3208 101.881 61.3208C98.7304 61.3208 96.965 62.1033 97.8457 66C99.5522 73.5504 95.5913 78.3068 87.4366 68.8059Z" fill="url(#paint4_linear)"/>
</g>
<defs>
<linearGradient id="paint0_linear" x1="0" y1="200" x2="0" y2="0" gradientUnits="userSpaceOnUse">
<stop stop-color="#FFC9B3"/>
<stop offset="1" stop-color="#FFD2C2"/>
</linearGradient>
<linearGradient id="paint1_linear" x1="63.9998" y1="47.6402" x2="63.9998" y2="152.667" gradientUnits="userSpaceOnUse">
<stop stop-color="#E6864E"/>
<stop offset="1" stop-color="#EB965E"/>
</linearGradient>
<linearGradient id="paint2_linear" x1="105.733" y1="108.238" x2="101.655" y2="123.712" gradientUnits="userSpaceOnUse">
<stop stop-color="#E07A3F"/>
<stop offset="1" stop-color="#EB9154"/>
</linearGradient>
<linearGradient id="paint3_linear" x1="20" y1="134.667" x2="20" y2="202.205" gradientUnits="userSpaceOnUse">
<stop stop-color="#1D0024"/>
<stop offset="1" stop-color="#100014"/>
</linearGradient>
<linearGradient id="paint4_linear" x1="60" y1="20" x2="60" y2="100.002" gradientUnits="userSpaceOnUse">
<stop stop-color="#1D0024"/>
<stop offset="1" stop-color="#100014"/>
</linearGradient>
</defs>
</svg>
